{"title":"12 Years a Slave 2013 US Transfer BDRip 1080p GORESEWAGE.mkv","uid":9695507,"size":19603577220,"categoryP":"video","categoryS":"hd___movies","magnet":"?xt=urn:btih:fb6a0bedc6886c5f78b998dd778771d0cdfe6511&amp;dn=12+Years+a+Slave+2013+US+Transfer+BDRip+1080p+GORESEWAGE.mkv&amp;tr=udp%3A%2F%2Ftracker.openbittorrent.com%3A80&amp;tr=udp%3A%2F%2Fopen.demonii.com%3A1337&amp;tr=udp%3A%2F%2Ftracker.coppersurfer.tk%3A6969&amp;tr=udp%3A%2F%2Fexodus.desync.com%3A6969","seeders":2,"leechers":0,"uploader":"ABSTAIN","files":1,"time":1393928324,"description":"C:/GORESEWAGE/12 Years a Slave 2013 US Transfer BDRip 1080p GORESEWAGE.mkv\n  General\n    Unique ID : 243522719628421618131409520049263194259 (0xB734C510C47102958C8F519B6427B093)\n    Complete name : C:/GORESEWAGE/12 Years a Slave 2013 US Transfer BDRip 1080p GORESEWAGE.mkv\n    Format : Matroska\n    Format version : Version 4 / Version 2\n    File size : 18.3 GiB\n    Duration : 2h 14mn\n    Overall bit rate : 19.5 Mbps\n    Movie name : 12 Years a Slave 2013 US Transfer BDRip 1080p GORESEWAGE\n    Encoded date : UTC 2014-03-04 08:27:31\n    Writing application : mkvmerge v6.1.0 ('Old Devil') built on Mar  2 2013 14:32:37\n    Writing library : libebml v1.3.0 + libmatroska v1.4.0\n    Attachment : Yes\n  Video #1\n    ID : 1\n    Format : AVC\n    Format/Info : Advanced Video Codec\n    Format profile : &lt;a class=&quot;__cf_email__&quot; href=&quot;/cdn-cgi/l/email-protection&quot; data-cfemail=&quot;7139181619313d455f40&quot;&gt;[email&amp;#160;protected]&lt;/a&gt;&lt;script cf-hash='f9e31' type=&quot;text/javascript&quot;&gt;\n/* &lt;![CDATA[ */!function(){try{var t=&quot;currentScript&quot;in document?document.currentScript:function(){for(var t=document.getElementsByTagName(&quot;script&quot;),e=t.length;e--;)if(t[e].getAttribute(&quot;cf-hash&quot;))return t[e]}();if(t&amp;&amp;t.previousSibling){var e,r,n,i,c=t.previousSibling,a=c.getAttribute(&quot;data-cfemail&quot;);if(a){for(e=&quot;&quot;,r=parseInt(a.substr(0,2),16),n=2;a.length-n;n+=2)i=parseInt(a.substr(n,2),16)^r,e+=String.fromCharCode(i);e=document.createTextNode(e),c.parentNode.replaceChild(e,c)}}}catch(u){}}();/* ]]&gt; */&lt;/script&gt;\n    Format settings, CABAC : Yes\n    Format settings, ReFrames : 5 frames\n    Codec ID : V_MPEG4/ISO/AVC\n    Duration : 2h 14mn\n    Bit rate : 17.6 Mbps\n    Width : 1 920 pixels\n    Height : 800 pixels\n    Display aspect ratio : 2.40:1\n    Frame rate mode : Constant\n    Frame rate : 23.976 fps\n    Color space : YUV\n    Chroma subsampling : 4:2:0\n    Bit depth : 8 bits\n    Scan type : Progressive\n    Bits/(Pixel*Frame) : 0.478\n    Stream size : 16.1 GiB (88%)\n    Title : 12 Years a Slave 2013 US Transfer BDRip 1080p GORESEWAGE\n    Writing library : x264 core 138 r2358kMod 9e941d1\n    Encoding settings : cabac=1 / ref=5 / deblock=1:-3:-3 / analyse=0x3:0x113 / me=tesa / subme=11 / psy=1 / fade_compensate=0.00 / psy_rd=1.10:0.00 / mixed_ref=1 / me_range=32 / chroma_me=1 / trellis=2 / 8x8dct=1 / cqm=0 / deadzone=21,11 / fast_pskip=0 / chroma_qp_offset=-2 / threads=18 / lookahead_threads=3 / sliced_threads=0 / nr=0 / decimate=0 / interlaced=0 / bluray_compat=0 / constrained_intra=0 / bframes=8 / b_pyramid=2 / b_adapt=2 / b_bias=0 / direct=3 / weightb=1 / open_gop=0 / weightp=2 / keyint=250 / keyint_min=23 / scenecut=40 / intra_refresh=0 / rc_lookahead=40 / rc=2pass / mbtree=0 / bitrate=17600 / ratetol=1.0 / qcomp=0.60 / qpmin=10 / qpmax=69 / qpstep=4 / cplxblur=20.0 / qblur=0.5 / vbv_maxrate=40000 / vbv_bufsize=30000 / nal_hrd=none / ip_ratio=1.35 / pb_ratio=1.10 / aq=3:0.80\n    Language : English\n    Default : Yes\n    Forced : No\n  Audio #2\n    ID : 2\n    Format : AC-3\n    Format/Info : Audio Coding 3\n    Mode extension : CM (complete main)\n    Format settings, Endianness : Big\n    Codec ID : A_AC3\n    Duration : 2h 14mn\n    Bit rate mode : Constant\n    Bit rate : 384 Kbps\n    Channel count : 6 channels\n    Channel positions : Front: L C R, Side: L R, LFE\n    Sampling rate : 48.0 KHz\n    Bit depth : 16 bits\n    Compression mode : Lossy\n    Stream size : 369 MiB (2%)\n    Title : Dub iTunes Russia\n    Language : Russian\n    Default : Yes\n    Forced : No\n  Audio #3\n    ID : 3\n    Format : DTS\n    Format/Info : Digital Theater Systems\n    Mode : 16\n    Format settings, Endianness : Big\n    Codec ID : A_DTS\n    Duration : 2h 14mn\n    Bit rate mode : Constant\n    Bit rate : 1 509 Kbps\n    Channel count : 6 channels\n    Channel positions : Front: L C R, Side: L R, LFE\n    Sampling rate : 48.0 KHz\n    Bit depth : 24 bits\n    Compression mode : Lossy\n    Stream size : 1.41 GiB (8%)\n    Title : Original\n    Language : English\n    Default : No\n    Forced : No\n  Text #4\n    ID : 4\n    Format : UTF-8\n    Codec ID : S_TEXT/UTF8\n    Codec ID/Info : UTF-8 Plain Text\n    Title : Full\n    Language : Russian\n    Default : No\n    Forced : No\n  Text #5\n    ID : 5\n    Format : UTF-8\n    Codec ID : S_TEXT/UTF8\n    Codec ID/Info : UTF-8 Plain Text\n    Title : Full\n    Language : English\n    Default : No\n    Forced : No\n  Text #6\n    ID : 6\n    Format : UTF-8\n    Codec ID : S_TEXT/UTF8\n    Codec ID/Info : UTF-8 Plain Text\n    Title : SDH\n    Language : English\n    Default : No\n    Forced : No\n  Text #7\n    ID : 7\n    Format : UTF-8\n    Codec ID : S_TEXT/UTF8\n    Codec ID/Info : UTF-8 Plain Text\n    Title : SDH Colored\n    Language : English\n    Default : No\n    Forced : No\n  Menu\n    00:00:00.000 : en:Chapter 1\n    00:06:02.862 : en:Chapter 2\n    00:10:13.529 : en:Chapter 3\n    00:12:58.778 : en:Chapter 4\n    00:16:24.650 : en:Chapter 5\n    00:19:18.866 : en:Chapter 6\n    00:25:01.708 : en:Chapter 7\n    00:27:48.458 : en:Chapter 8\n    00:32:07.967 : en:Chapter 9\n    00:36:07.874 : en:Chapter 10\n    00:39:39.126 : en:Chapter 11\n    00:45:16.714 : en:Chapter 12\n    00:47:36.144 : en:Chapter 13\n    00:52:26.977 : en:Chapter 14\n    00:54:34.187 : en:Chapter 15\n    00:59:34.028 : en:Chapter 16\n    01:01:47.704 : en:Chapter 17\n    01:06:04.543 : en:Chapter 18\n    01:09:55.691 : en:Chapter 19\n    01:12:47.988 : en:Chapter 20\n    01:15:27.689 : en:Chapter 21\n    01:18:31.873 : en:Chapter 22\n    01:21:08.488 : en:Chapter 23\n    01:23:46.688 : en:Chapter 24\n    01:26:25.972 : en:Chapter 25\n    01:28:18.876 : en:Chapter 26\n    01:31:22.518 : en:Chapter 27\n    01:34:10.144 : en:Chapter 28\n    01:38:14.013 : en:Chapter 29\n    01:41:50.312 : en:Chapter 30\n    01:45:18.895 : en:Chapter 31\n    01:53:09.908 : en:Chapter 32\n    01:54:46.504 : en:Chapter 33\n    02:00:22.215 : en:Chapter 34\n    02:04:07.398 : en:Chapter 35\n    02:07:25.721 : en:Chapter 36","torrent":{"xt":"urn:btih:fb6a0bedc6886c5f78b998dd778771d0cdfe6511","amp;dn":"12+Years+a+Slave+2013+US+Transfer+BDRip+1080p+GORESEWAGE.mkv","amp;tr":["udp%3A%2F%2Ftracker.openbittorrent.com%3A80","udp%3A%2F%2Fopen.demonii.com%3A1337","udp%3A%2F%2Ftracker.coppersurfer.tk%3A6969","udp%3A%2F%2Fexodus.desync.com%3A6969"],"infoHash":"fb6a0bedc6886c5f78b998dd778771d0cdfe6511","infoHashBuffer":{"type":"Buffer","data":[251,106,11,237,198,136,108,95,120,185,152,221,119,135,113,208,205,254,101,17]},"announce":[],"urlList":[]}}